<svg id="Layer_1" data-name="Layer 1" xmlns="http://www.w3.org/2000/svg" xmlns:xlink="http://www.w3.org/1999/xlink" viewBox="0 0 72 72"><defs><style>.cls-1{fill:url(#linear-gradient);}.cls-2{fill:#fff;}.cls-3{fill:url(#linear-gradient-2);}</style><linearGradient id="linear-gradient" x1="403.29" y1="-36.65" x2="454.2" y2="14.26" gradientTransform="translate(338.99 -122.54) rotate(90)" gradientUnits="userSpaceOnUse"><stop offset="0" stop-color="#73bad1"/><stop offset="0.14" stop-color="#6db7cf"/><stop offset="0.33" stop-color="#5dafca"/><stop offset="0.54" stop-color="#42a2c1"/><stop offset="0.77" stop-color="#1c8fb5"/><stop offset="0.79" stop-color="#1a8eb4"/></linearGradient><linearGradient id="linear-gradient-2" x1="350.19" y1="326.06" x2="350.19" y2="284.98" gradientUnits="userSpaceOnUse"><stop offset="0" stop-color="#80c0d5"/><stop offset="0.13" stop-color="#7abdd3"/><stop offset="0.31" stop-color="#6ab5ce"/><stop offset="0.51" stop-color="#4fa8c5"/><stop offset="0.72" stop-color="#2996b9"/><stop offset="0.8" stop-color="#1a8eb4"/></linearGradient></defs><title>acm-no-tag</title><rect class="cls-1" x="324.73" y="280.75" width="50.91" height="50.91" transform="translate(-428.14 67.1) rotate(-45)"/><path class="cls-2" d="M372.26,306.2a22.07,22.07,0,1,1-22.07-22.07A22.07,22.07,0,0,1,372.26,306.2Z" transform="translate(-314.19 -270.2)"/><path class="cls-3" d="M370.05,306.2a19.87,19.87,0,1,1-19.86-19.87A19.86,19.86,0,0,1,370.05,306.2Z" transform="translate(-314.19 -270.2)"/><path class="cls-2" d="M338.62,310.07l-.54.46a4.36,4.36,0,0,1-.65.41,5.79,5.79,0,0,1-.78.29,4.74,4.74,0,0,1-1.06.1,2.86,2.86,0,0,1-2.1-.85,2.93,2.93,0,0,1-.84-2.15,3.07,3.07,0,0,1,.43-1.72,2.92,2.92,0,0,1,1.22-1,6.37,6.37,0,0,1,1.93-.54c.75-.1,1.55-.18,2.41-.24v-.05a1.12,1.12,0,0,0-.58-1.09,3.8,3.8,0,0,0-1.75-.31,4.73,4.73,0,0,0-1.23.2,9.3,9.3,0,0,0-1.37.49h-.26v-2.32c.3-.08.77-.18,1.43-.3a11.19,11.19,0,0,1,2-.18,6.19,6.19,0,0,1,3.6.83,2.89,2.89,0,0,1,1.13,2.51v6.51h-3Zm0-1.49v-2l-1.21.13a4,4,0,0,0-.91.21,1.24,1.24,0,0,0-.61.42,1.15,1.15,0,0,0-.21.73,1.08,1.08,0,0,0,.35.92,2.22,2.22,0,0,0,1.86.07A2.56,2.56,0,0,0,338.62,308.58Z" transform="translate(-314.19 -270.2)"/><path class="cls-2" d="M348.16,311.33A7.46,7.46,0,0,1,346,311a4.71,4.71,0,0,1-1.71-.92,4.15,4.15,0,0,1-1.11-1.56,5.57,5.57,0,0,1-.4-2.22,5.64,5.64,0,0,1,.43-2.33,4.29,4.29,0,0,1,1.18-1.58,4.65,4.65,0,0,1,1.68-.88,7.15,7.15,0,0,1,2-.29,6.65,6.65,0,0,1,1.59.19,6.8,6.8,0,0,1,1.59.58v2.56h-.38l-.44-.38a4,4,0,0,0-.57-.37,4.11,4.11,0,0,0-.73-.31,3.31,3.31,0,0,0-.92-.12,2.13,2.13,0,0,0-1.77.8,3.33,3.33,0,0,0-.62,2.13,3,3,0,0,0,.67,2.14,2.32,2.32,0,0,0,1.78.71,3.35,3.35,0,0,0,1-.13,3.27,3.27,0,0,0,.73-.3,3.05,3.05,0,0,0,.51-.37l.37-.34h.38v2.55l-.59.26a5.08,5.08,0,0,1-.69.23,7.55,7.55,0,0,1-.81.18A6.48,6.48,0,0,1,348.16,311.33Z" transform="translate(-314.19 -270.2)"/><path class="cls-2" d="M364.27,311.08V306.3q0-.71,0-1.2a2.71,2.71,0,0,0-.15-.79.86.86,0,0,0-.4-.44,1.57,1.57,0,0,0-.76-.15,1.59,1.59,0,0,0-.67.15,3.84,3.84,0,0,0-.73.43v6.78h-3V306.3c0-.47,0-.86,0-1.19a2.4,2.4,0,0,0-.16-.8.81.81,0,0,0-.39-.44,1.56,1.56,0,0,0-.75-.15,1.65,1.65,0,0,0-.72.17,5.34,5.34,0,0,0-.68.41v6.78h-3v-9.56h3v1.05a8.17,8.17,0,0,1,1.38-1,3,3,0,0,1,1.45-.35,2.8,2.8,0,0,1,1.54.42,2.62,2.62,0,0,1,1,1.24,9.28,9.28,0,0,1,1.63-1.23,3.18,3.18,0,0,1,1.54-.43,3,3,0,0,1,1.19.22,2.3,2.3,0,0,1,.9.63,3,3,0,0,1,.6,1.1,5.75,5.75,0,0,1,.2,1.65v6.23Z" transform="translate(-314.19 -270.2)"/></svg>