<svg id="Layer_1" data-name="Layer 1" xmlns="http://www.w3.org/2000/svg" xmlns:xlink="http://www.w3.org/1999/xlink" viewBox="0 0 303.15 110.46"><defs><style>.cls-1{fill:#fff;}.cls-2{fill:url(#linear-gradient);}.cls-3{fill:url(#linear-gradient-2);}.cls-4{fill:#0182ac;}</style><linearGradient id="linear-gradient" x1="403.29" y1="-36.65" x2="454.2" y2="14.26" gradientTransform="translate(338.99 -122.54) rotate(90)" gradientUnits="userSpaceOnUse"><stop offset="0" stop-color="#73bad1"/><stop offset="0.14" stop-color="#6db7cf"/><stop offset="0.33" stop-color="#5dafca"/><stop offset="0.54" stop-color="#42a2c1"/><stop offset="0.77" stop-color="#1c8fb5"/><stop offset="0.79" stop-color="#1a8eb4"/></linearGradient><linearGradient id="linear-gradient-2" x1="350.19" y1="326.06" x2="350.19" y2="284.98" gradientUnits="userSpaceOnUse"><stop offset="0" stop-color="#80c0d5"/><stop offset="0.13" stop-color="#7abdd3"/><stop offset="0.31" stop-color="#6ab5ce"/><stop offset="0.51" stop-color="#4fa8c5"/><stop offset="0.72" stop-color="#2996b9"/><stop offset="0.8" stop-color="#1a8eb4"/></linearGradient></defs><title>acm_rgb_grad_vtag_pos</title><path class="cls-1" d="M396.29,300.65l-.78,2.58h-1.72l2.92-9.1h2.12l2.95,9.1H400l-.82-2.58Zm2.6-1.25-.71-2.24c-.18-.56-.32-1.18-.46-1.7h0c-.13.52-.27,1.16-.43,1.7l-.7,2.24Z" transform="translate(-314.19 -270.2)"/><path class="cls-1" d="M402.66,301.69a3.61,3.61,0,0,0,1.67.49c.73,0,1.06-.31,1.06-.74s-.27-.66-1.08-1c-1.28-.43-1.81-1.14-1.81-1.92,0-1.16,1-2.05,2.48-2.05a3.89,3.89,0,0,1,1.76.39l-.34,1.16a2.93,2.93,0,0,0-1.39-.38c-.59,0-.92.3-.92.71s.31.6,1.15.91c1.2.42,1.74,1,1.76,2,0,1.2-.94,2.07-2.68,2.07a4.28,4.28,0,0,1-2-.46Z" transform="translate(-314.19 -270.2)"/><path class="cls-1" d="M408.09,301.69a3.58,3.58,0,0,0,1.67.49c.73,0,1.06-.31,1.06-.74s-.28-.66-1.08-1c-1.29-.43-1.81-1.14-1.81-1.92,0-1.16.95-2.05,2.48-2.05a3.92,3.92,0,0,1,1.76.39l-.34,1.16a2.93,2.93,0,0,0-1.39-.38c-.6,0-.92.3-.92.71s.31.6,1.15.91c1.2.42,1.74,1,1.75,2,0,1.2-.93,2.07-2.67,2.07a4.25,4.25,0,0,1-2-.46Z" transform="translate(-314.19 -270.2)"/><path class="cls-1" d="M416.46,303.38a3.18,3.18,0,0,1-3.3-3.39,3.25,3.25,0,0,1,3.41-3.48,3.15,3.15,0,0,1,3.26,3.37,3.25,3.25,0,0,1-3.36,3.5Zm.05-1.2c.95,0,1.61-.92,1.61-2.26,0-1-.46-2.21-1.59-2.21s-1.65,1.15-1.65,2.24c0,1.27.63,2.23,1.62,2.23Z" transform="translate(-314.19 -270.2)"/><path class="cls-1" d="M425.83,303a4.85,4.85,0,0,1-1.87.34,3.17,3.17,0,0,1-3.38-3.36,3.38,3.38,0,0,1,3.65-3.5,4.28,4.28,0,0,1,1.61.3l-.3,1.25a2.8,2.8,0,0,0-1.25-.25,2.13,2.13,0,0,0,0,4.25,3.26,3.26,0,0,0,1.31-.26Z" transform="translate(-314.19 -270.2)"/><path class="cls-1" d="M427.68,295.71a.87.87,0,0,1-.92-.89.93.93,0,1,1,.93.89Zm-.83,7.52v-6.57h1.66v6.57Z" transform="translate(-314.19 -270.2)"/><path class="cls-1" d="M435.21,301.65a8.87,8.87,0,0,0,.11,1.58h-1.5l-.12-.73h0a2.4,2.4,0,0,1-2,.88,2,2,0,0,1-2.06-2c0-1.64,1.47-2.49,3.9-2.48v-.11c0-.43-.18-1.15-1.34-1.15a3.53,3.53,0,0,0-1.77.49l-.32-1.08a4.73,4.73,0,0,1,2.38-.58,2.46,2.46,0,0,1,2.71,2.78ZM433.59,300c-1.18,0-2.3.23-2.3,1.23a.87.87,0,0,0,.95.94,1.37,1.37,0,0,0,1.31-.9,1.14,1.14,0,0,0,0-.37Z" transform="translate(-314.19 -270.2)"/><path class="cls-1" d="M438.58,295v1.69h1.58v1.24h-1.58v2.89c0,.81.22,1.21.85,1.21a2.35,2.35,0,0,0,.65-.06l0,1.25a3.47,3.47,0,0,1-1.2.18,1.93,1.93,0,0,1-1.43-.54A2.58,2.58,0,0,1,437,301V297.9H436v-1.24H437v-1.23Z" transform="translate(-314.19 -270.2)"/><path class="cls-1" d="M442,295.71a.9.9,0,1,1,.94-.89.88.88,0,0,1-.94.89Zm-.82,7.52v-6.57h1.66v6.57Z" transform="translate(-314.19 -270.2)"/><path class="cls-1" d="M447.35,303.38a3.18,3.18,0,0,1-3.3-3.39,3.24,3.24,0,0,1,3.4-3.48,3.16,3.16,0,0,1,3.27,3.37,3.25,3.25,0,0,1-3.36,3.5Zm0-1.2c.94,0,1.61-.92,1.61-2.26,0-1-.46-2.21-1.6-2.21s-1.64,1.15-1.64,2.24c0,1.27.63,2.23,1.62,2.23Z" transform="translate(-314.19 -270.2)"/><path class="cls-1" d="M451.88,298.62c0-.76,0-1.39-.05-2h1.44l.08,1h0a2.43,2.43,0,0,1,2.11-1.13c1.15,0,2.33.74,2.33,2.82v3.9h-1.66v-3.71c0-.95-.35-1.66-1.25-1.66a1.4,1.4,0,0,0-1.3,1,1.69,1.69,0,0,0-.08.53v3.87h-1.66Z" transform="translate(-314.19 -270.2)"/><path class="cls-1" d="M462.18,303.23V297.9h-.89v-1.24h.89v-.29a3.06,3.06,0,0,1,.8-2.24,2.49,2.49,0,0,1,1.71-.63,3.53,3.53,0,0,1,1.06.16l-.11,1.28a2.24,2.24,0,0,0-.72-.12c-.82,0-1.09.69-1.09,1.5v.34h1.44v1.24h-1.43v5.33Z" transform="translate(-314.19 -270.2)"/><path class="cls-1" d="M468.82,303.38a3.18,3.18,0,0,1-3.29-3.39,3.24,3.24,0,0,1,3.4-3.48,3.16,3.16,0,0,1,3.27,3.37,3.25,3.25,0,0,1-3.36,3.5Zm.06-1.2c.94,0,1.6-.92,1.6-2.26,0-1-.45-2.21-1.59-2.21s-1.65,1.15-1.65,2.24c0,1.27.64,2.23,1.62,2.23Z" transform="translate(-314.19 -270.2)"/><path class="cls-1" d="M473.36,298.78c0-.89,0-1.54-.05-2.12h1.43l.06,1.24h0a2,2,0,0,1,1.81-1.39,1.51,1.51,0,0,1,.39,0v1.55a3.23,3.23,0,0,0-.49,0,1.46,1.46,0,0,0-1.49,1.26,2.6,2.6,0,0,0,0,.5v3.41h-1.66Z" transform="translate(-314.19 -270.2)"/><path class="cls-1" d="M401,318a6,6,0,0,1-2.37.41,4.3,4.3,0,0,1-4.64-4.58,4.57,4.57,0,0,1,4.87-4.79,5.09,5.09,0,0,1,2.2.39l-.35,1.32a4.45,4.45,0,0,0-1.78-.35,3,3,0,0,0-3.18,3.35,3,3,0,0,0,3.17,3.27,5,5,0,0,0,1.81-.33Z" transform="translate(-314.19 -270.2)"/><path class="cls-1" d="M404.79,318.38A3.18,3.18,0,0,1,401.5,315a3.24,3.24,0,0,1,3.4-3.48,3.16,3.16,0,0,1,3.27,3.37,3.25,3.25,0,0,1-3.36,3.5Zm.06-1.2c.94,0,1.61-.92,1.61-2.26,0-1-.46-2.21-1.6-2.21s-1.65,1.15-1.65,2.24c0,1.27.64,2.23,1.62,2.23Z" transform="translate(-314.19 -270.2)"/><path class="cls-1" d="M409.33,313.62c0-.76,0-1.4-.05-2h1.41l.09,1h0a2.24,2.24,0,0,1,2-1.12,1.9,1.9,0,0,1,1.82,1.21h0a2.62,2.62,0,0,1,.8-.82,2.23,2.23,0,0,1,1.35-.39c1.08,0,2.18.74,2.18,2.85v3.87H417.4V314.6c0-1.09-.37-1.74-1.17-1.74a1.25,1.25,0,0,0-1.16.88,1.59,1.59,0,0,0-.08.55v3.94h-1.62v-3.8c0-.92-.37-1.57-1.14-1.57a1.34,1.34,0,0,0-1.2.93,2.09,2.09,0,0,0-.08.55v3.89h-1.62Z" transform="translate(-314.19 -270.2)"/><path class="cls-1" d="M420.58,313.84c0-.86,0-1.56-.06-2.18H422l.08,1h0a2.55,2.55,0,0,1,2.25-1.16c1.51,0,2.77,1.3,2.77,3.35,0,2.37-1.5,3.52-3,3.52a2.16,2.16,0,0,1-1.85-.88h0v3.41h-1.66Zm1.66,1.64a2.32,2.32,0,0,0,0,.46,1.51,1.51,0,0,0,1.47,1.16c1.05,0,1.67-.88,1.67-2.18s-.56-2.1-1.63-2.1a1.58,1.58,0,0,0-1.5,1.23,1.93,1.93,0,0,0-.05.42Z" transform="translate(-314.19 -270.2)"/><path class="cls-1" d="M434.16,316.26c0,.78,0,1.43,0,2h-1.44l-.08-1h-.05a2.39,2.39,0,0,1-2.11,1.13c-1.19,0-2.29-.71-2.29-2.86v-3.86h1.66v3.58c0,1.09.36,1.79,1.23,1.79a1.35,1.35,0,0,0,1.27-.89,1.16,1.16,0,0,0,.1-.51v-4h1.66Z" transform="translate(-314.19 -270.2)"/><path class="cls-1" d="M437.65,310v1.69h1.58v1.24h-1.58v2.89c0,.81.22,1.21.85,1.21a2.35,2.35,0,0,0,.65-.06l0,1.25a3.47,3.47,0,0,1-1.2.18,1.89,1.89,0,0,1-1.43-.54A2.58,2.58,0,0,1,436,316V312.9h-.93v-1.24H436v-1.23Z" transform="translate(-314.19 -270.2)"/><path class="cls-1" d="M441.11,310.71a.9.9,0,1,1,.94-.89.88.88,0,0,1-.94.89Zm-.82,7.52v-6.57H442v6.57Z" transform="translate(-314.19 -270.2)"/><path class="cls-1" d="M443.54,313.62c0-.76,0-1.4-.06-2h1.45l.08,1h0a2.42,2.42,0,0,1,2.11-1.13c1.14,0,2.33.74,2.33,2.82v3.9h-1.66v-3.71c0-.94-.35-1.66-1.25-1.66a1.39,1.39,0,0,0-1.3,1,1.69,1.69,0,0,0-.08.53v3.87h-1.66Z" transform="translate(-314.19 -270.2)"/><path class="cls-1" d="M457,317.27a3.81,3.81,0,0,1-1,3,3.75,3.75,0,0,1-2.54.79,4.73,4.73,0,0,1-2.29-.52l.36-1.26a4,4,0,0,0,1.92.5,1.75,1.75,0,0,0,1.89-2v-.57h0a2.21,2.21,0,0,1-1.92,1,2.91,2.91,0,0,1-2.79-3.21c0-2.16,1.4-3.47,3-3.47a2.06,2.06,0,0,1,1.91,1h0l.07-.88h1.45c0,.44-.06,1-.06,1.89Zm-1.66-3a1.64,1.64,0,0,0-.05-.45,1.39,1.39,0,0,0-1.35-1.06c-.93,0-1.62.81-1.62,2.14,0,1.13.56,2,1.6,2a1.42,1.42,0,0,0,1.35-1,1.81,1.81,0,0,0,.07-.58Z" transform="translate(-314.19 -270.2)"/><path class="cls-1" d="M468.93,314.52c-.05-1.17-.12-2.58-.11-3.82h0c-.29,1.11-.67,2.34-1.08,3.48l-1.33,3.94H465.1l-1.22-3.88c-.35-1.16-.67-2.41-.92-3.54h0c0,1.19-.1,2.63-.16,3.87l-.21,3.66H461l.61-9.1h2.19l1.18,3.66c.33,1.07.61,2.15.84,3.16h0c.24-1,.55-2.11.91-3.17l1.25-3.65h2.16l.53,9.1h-1.62Z" transform="translate(-314.19 -270.2)"/><path class="cls-1" d="M477.3,316.65a8.87,8.87,0,0,0,.11,1.58h-1.5l-.12-.73h0a2.39,2.39,0,0,1-1.95.88,2,2,0,0,1-2.06-2c0-1.64,1.47-2.49,3.9-2.48v-.11c0-.43-.17-1.15-1.34-1.15a3.49,3.49,0,0,0-1.76.49l-.33-1.08a4.73,4.73,0,0,1,2.38-.58,2.46,2.46,0,0,1,2.71,2.78ZM475.68,315c-1.17,0-2.29.23-2.29,1.23a.86.86,0,0,0,.94.94,1.36,1.36,0,0,0,1.31-.9,1.14,1.14,0,0,0,0-.37Z" transform="translate(-314.19 -270.2)"/><path class="cls-1" d="M483.69,318a4.85,4.85,0,0,1-1.87.34,3.17,3.17,0,0,1-3.38-3.36,3.39,3.39,0,0,1,3.65-3.5,4.28,4.28,0,0,1,1.61.3l-.3,1.25a2.8,2.8,0,0,0-1.25-.25,2.13,2.13,0,0,0,0,4.25,3.26,3.26,0,0,0,1.31-.26Z" transform="translate(-314.19 -270.2)"/><path class="cls-1" d="M484.71,308.63h1.66v3.92h0a2.16,2.16,0,0,1,.82-.74,2.35,2.35,0,0,1,1.15-.3c1.12,0,2.3.74,2.3,2.85v3.87H489v-3.7c0-.94-.35-1.67-1.27-1.67a1.39,1.39,0,0,0-1.3.93,1.63,1.63,0,0,0-.07.5v3.94h-1.66Z" transform="translate(-314.19 -270.2)"/><path class="cls-1" d="M493.06,310.71a.87.87,0,0,1-.92-.89.93.93,0,1,1,.93.89Zm-.83,7.52v-6.57h1.66v6.57Z" transform="translate(-314.19 -270.2)"/><path class="cls-1" d="M495.49,313.62c0-.76,0-1.4-.06-2h1.45l.08,1h0a2.4,2.4,0,0,1,2.1-1.13c1.15,0,2.34.74,2.34,2.82v3.9h-1.66v-3.71c0-.94-.35-1.66-1.26-1.66a1.38,1.38,0,0,0-1.29,1,1.44,1.44,0,0,0-.08.53v3.87h-1.66Z" transform="translate(-314.19 -270.2)"/><path class="cls-1" d="M504.18,315.41a1.78,1.78,0,0,0,2,1.7,5.24,5.24,0,0,0,1.82-.3l.24,1.14a6,6,0,0,1-2.29.42,3.11,3.11,0,0,1-3.39-3.32,3.25,3.25,0,0,1,3.21-3.54c2.13,0,2.83,1.75,2.83,3.2a3.87,3.87,0,0,1-.05.7Zm2.89-1.16a1.42,1.42,0,0,0-1.36-1.61,1.63,1.63,0,0,0-1.53,1.61Z" transform="translate(-314.19 -270.2)"/><path class="cls-1" d="M509.77,313.78c0-.89,0-1.54-.06-2.12h1.44l.06,1.24h0a2,2,0,0,1,1.81-1.39,1.56,1.56,0,0,1,.39,0v1.55a3.23,3.23,0,0,0-.49,0,1.46,1.46,0,0,0-1.49,1.26,2.6,2.6,0,0,0,0,.5v3.41h-1.66Z" transform="translate(-314.19 -270.2)"/><path class="cls-1" d="M515.72,311.66l1.18,3.52c.13.41.28.91.37,1.27h.05c.09-.36.21-.86.35-1.28l1-3.51h1.77l-1.65,4.48c-.9,2.46-1.51,3.55-2.28,4.23a3.48,3.48,0,0,1-1.74.83l-.38-1.39a2.69,2.69,0,0,0,1-.46,2.88,2.88,0,0,0,.92-1,.85.85,0,0,0,.09-.29.79.79,0,0,0-.08-.33l-2.41-6Z" transform="translate(-314.19 -270.2)"/><rect class="cls-2" x="324.73" y="280.75" width="50.91" height="50.91" transform="translate(-428.14 67.1) rotate(-45)"/><path class="cls-1" d="M372.26,306.2a22.07,22.07,0,1,1-22.07-22.07A22.07,22.07,0,0,1,372.26,306.2Z" transform="translate(-314.19 -270.2)"/><path class="cls-3" d="M370.05,306.2a19.87,19.87,0,1,1-19.86-19.87A19.86,19.86,0,0,1,370.05,306.2Z" transform="translate(-314.19 -270.2)"/><path class="cls-1" d="M338.62,310.07l-.54.46a4.36,4.36,0,0,1-.65.41,5.79,5.79,0,0,1-.78.29,4.74,4.74,0,0,1-1.06.1,2.86,2.86,0,0,1-2.1-.85,2.93,2.93,0,0,1-.84-2.15,3.07,3.07,0,0,1,.43-1.72,2.92,2.92,0,0,1,1.22-1,6.37,6.37,0,0,1,1.93-.54c.75-.1,1.55-.18,2.41-.24v-.05a1.12,1.12,0,0,0-.58-1.09,3.8,3.8,0,0,0-1.75-.31,4.73,4.73,0,0,0-1.23.2,9.3,9.3,0,0,0-1.37.49h-.26v-2.32c.3-.08.77-.18,1.43-.3a11.19,11.19,0,0,1,2-.18,6.19,6.19,0,0,1,3.6.83,2.89,2.89,0,0,1,1.13,2.51v6.51h-3Zm0-1.49v-2l-1.21.13a4,4,0,0,0-.91.21,1.24,1.24,0,0,0-.61.42,1.15,1.15,0,0,0-.21.73,1.08,1.08,0,0,0,.35.92,2.22,2.22,0,0,0,1.86.07A2.56,2.56,0,0,0,338.62,308.58Z" transform="translate(-314.19 -270.2)"/><path class="cls-1" d="M348.16,311.33A7.46,7.46,0,0,1,346,311a4.71,4.71,0,0,1-1.71-.92,4.15,4.15,0,0,1-1.11-1.56,5.57,5.57,0,0,1-.4-2.22,5.64,5.64,0,0,1,.43-2.33,4.29,4.29,0,0,1,1.18-1.58,4.65,4.65,0,0,1,1.68-.88,7.15,7.15,0,0,1,2-.29,6.65,6.65,0,0,1,1.59.19,6.8,6.8,0,0,1,1.59.58v2.56h-.38l-.44-.38a4,4,0,0,0-.57-.37,4.11,4.11,0,0,0-.73-.31,3.31,3.31,0,0,0-.92-.12,2.13,2.13,0,0,0-1.77.8,3.33,3.33,0,0,0-.62,2.13,3,3,0,0,0,.67,2.14,2.32,2.32,0,0,0,1.78.71,3.35,3.35,0,0,0,1-.13,3.27,3.27,0,0,0,.73-.3,3.05,3.05,0,0,0,.51-.37l.37-.34h.38v2.55l-.59.26a5.08,5.08,0,0,1-.69.23,7.55,7.55,0,0,1-.81.18A6.48,6.48,0,0,1,348.16,311.33Z" transform="translate(-314.19 -270.2)"/><path class="cls-1" d="M364.27,311.08V306.3q0-.71,0-1.2a2.71,2.71,0,0,0-.15-.79.86.86,0,0,0-.4-.44,1.57,1.57,0,0,0-.76-.15,1.59,1.59,0,0,0-.67.15,3.84,3.84,0,0,0-.73.43v6.78h-3V306.3c0-.47,0-.86,0-1.19a2.4,2.4,0,0,0-.16-.8.81.81,0,0,0-.39-.44,1.56,1.56,0,0,0-.75-.15,1.65,1.65,0,0,0-.72.17,5.34,5.34,0,0,0-.68.41v6.78h-3v-9.56h3v1.05a8.17,8.17,0,0,1,1.38-1,3,3,0,0,1,1.45-.35,2.8,2.8,0,0,1,1.54.42,2.62,2.62,0,0,1,1,1.24,9.28,9.28,0,0,1,1.63-1.23,3.18,3.18,0,0,1,1.54-.43,3,3,0,0,1,1.19.22,2.3,2.3,0,0,1,.9.63,3,3,0,0,1,.6,1.1,5.75,5.75,0,0,1,.2,1.65v6.23Z" transform="translate(-314.19 -270.2)"/><path class="cls-4" d="M396.09,375.69l-1.26,2.51h-1l4.12-7.94h1.15l1.1,7.94h-1l-.32-2.51Zm2.66-.78-.3-2.3c-.05-.41-.11-1-.14-1.46h0c-.21.47-.41,1-.65,1.45l-1.19,2.31Z" transform="translate(-314.19 -270.2)"/><path class="cls-4" d="M407.09,369.83l-1.25,6.57a14.94,14.94,0,0,0-.25,1.8h-.9l.16-1.13h0a2.42,2.42,0,0,1-2.05,1.26c-1.1,0-1.71-.91-1.71-2.07a3.75,3.75,0,0,1,3.53-3.89,2.56,2.56,0,0,1,1,.2l.51-2.74Zm-1.64,3.56a1.77,1.77,0,0,0-.94-.23c-1.37,0-2.43,1.45-2.43,3,0,.68.23,1.4,1.07,1.4s1.66-.86,1.91-2.15Z" transform="translate(-314.19 -270.2)"/><path class="cls-4" d="M408.48,372.5l.49,3.25c.08.65.16,1.08.18,1.4h0c.12-.3.28-.68.61-1.33l1.74-3.32h1.07l-3.17,5.7h-1l-1-5.7Z" transform="translate(-314.19 -270.2)"/><path class="cls-4" d="M416.15,378.2c0-.34.06-.88.13-1.47h0a2.5,2.5,0,0,1-2.22,1.6,1.69,1.69,0,0,1-1.64-1.88,4,4,0,0,1,4-4.08,5.32,5.32,0,0,1,1.53.22l-.57,3a12.5,12.5,0,0,0-.25,2.64Zm.64-5a2.43,2.43,0,0,0-.69-.09,3,3,0,0,0-2.68,3.13c0,.63.22,1.26,1,1.26s1.78-1.06,2.07-2.58Z" transform="translate(-314.19 -270.2)"/><path class="cls-4" d="M418.52,378.2l.77-4c.12-.64.2-1.19.27-1.66h.87l-.14,1.12h0a2.5,2.5,0,0,1,2.11-1.25,1.41,1.41,0,0,1,1.45,1.59,5.45,5.45,0,0,1-.11.92l-.63,3.32h-1l.62-3.29a3.47,3.47,0,0,0,.09-.73c0-.58-.23-1-.9-1a2.5,2.5,0,0,0-1.94,2.25l-.52,2.77Z" transform="translate(-314.19 -270.2)"/><path class="cls-4" d="M428.74,378a4,4,0,0,1-1.65.35,2.05,2.05,0,0,1-2.19-2.21,3.61,3.61,0,0,1,3.48-3.74,2.78,2.78,0,0,1,1.19.25l-.28.77a2.28,2.28,0,0,0-1-.21,2.66,2.66,0,0,0-2.42,2.81,1.34,1.34,0,0,0,1.41,1.52,3,3,0,0,0,1.32-.32Z" transform="translate(-314.19 -270.2)"/><path class="cls-4" d="M429.8,378.2l1.09-5.7h1l-1.09,5.7Zm1.82-6.68a.56.56,0,0,1-.55-.61.66.66,0,0,1,.65-.66.56.56,0,0,1,.58.61.65.65,0,0,1-.66.66Z" transform="translate(-314.19 -270.2)"/><path class="cls-4" d="M432.5,378.2l.76-4c.13-.64.2-1.19.27-1.66h.88l-.15,1.12h0a2.49,2.49,0,0,1,2.11-1.25,1.41,1.41,0,0,1,1.45,1.59,5.45,5.45,0,0,1-.11.92l-.63,3.32h-1l.62-3.29a3.47,3.47,0,0,0,.08-.73c0-.58-.22-1-.89-1a2.52,2.52,0,0,0-1.95,2.25l-.52,2.77Z" transform="translate(-314.19 -270.2)"/><path class="cls-4" d="M438.85,379.5a3,3,0,0,0,1.51.38c.95,0,1.71-.5,2.05-2l.19-.85h0a2.27,2.27,0,0,1-2,1.21,1.8,1.8,0,0,1-1.73-2,3.72,3.72,0,0,1,3.62-3.85,4.61,4.61,0,0,1,1.82.4l-.87,4.71a4.25,4.25,0,0,1-1.15,2.55,3,3,0,0,1-2,.63,3.32,3.32,0,0,1-1.71-.4Zm4.37-6.15a2.26,2.26,0,0,0-.94-.19c-1.43,0-2.41,1.48-2.42,2.9,0,.62.23,1.36,1.1,1.36s1.7-1.06,1.9-2.18Z" transform="translate(-314.19 -270.2)"/><path class="cls-4" d="M452.64,377.94a5.21,5.21,0,0,1-2.06.39,3,3,0,0,1-3.22-3.3,4.93,4.93,0,0,1,1.7-3.83,4.45,4.45,0,0,1,3-1.07,3.14,3.14,0,0,1,1.72.39l-.32.79a3.22,3.22,0,0,0-1.57-.33,3.33,3.33,0,0,0-2.27.89,4.2,4.2,0,0,0-1.21,3c0,1.43.64,2.59,2.41,2.59a4.09,4.09,0,0,0,1.7-.34Z" transform="translate(-314.19 -270.2)"/><path class="cls-4" d="M459,374.75a3.42,3.42,0,0,1-3.16,3.58,2.18,2.18,0,0,1-2.23-2.34,3.42,3.42,0,0,1,3.16-3.62A2.18,2.18,0,0,1,459,374.75Zm-4.37,1.2c0,.93.5,1.6,1.34,1.6,1.15,0,2-1.48,2-2.81a1.42,1.42,0,0,0-1.34-1.6C455.48,373.14,454.65,374.64,454.67,376Z" transform="translate(-314.19 -270.2)"/><path class="cls-4" d="M459.72,378.2l.77-4c.12-.64.2-1.19.26-1.66h.86l-.16,1.07h0a2.43,2.43,0,0,1,2-1.2,1.24,1.24,0,0,1,1.34,1.27,2.43,2.43,0,0,1,2.09-1.27,1.35,1.35,0,0,1,1.38,1.49,5.74,5.74,0,0,1-.09,1l-.64,3.37h-.95l.61-3.29a3.5,3.5,0,0,0,.08-.74c0-.6-.22-1-.86-1s-1.54.82-1.78,2.1l-.55,2.92h-.95l.64-3.35a3.37,3.37,0,0,0,.07-.69c0-.48-.13-1-.85-1s-1.6.94-1.82,2.16l-.53,2.86Z" transform="translate(-314.19 -270.2)"/><path class="cls-4" d="M468.74,380.54l1.14-6c.12-.68.24-1.46.32-2h.89l-.16,1.08h0a2.6,2.6,0,0,1,2.05-1.2c1.24,0,1.76,1,1.76,2.06,0,2-1.44,3.9-3.34,3.9a2.46,2.46,0,0,1-1.23-.26h0l-.46,2.47Zm1.6-3.29a1.73,1.73,0,0,0,1.08.3c1.27,0,2.33-1.55,2.33-3.05,0-.6-.27-1.32-1.1-1.32s-1.73.88-2,2.48Z" transform="translate(-314.19 -270.2)"/><path class="cls-4" d="M481,372.5l-.77,4c-.12.64-.2,1.19-.26,1.66h-.88l.15-1.07h0a2.56,2.56,0,0,1-2,1.2c-.73,0-1.5-.35-1.5-1.65a5.23,5.23,0,0,1,.11-.95l.61-3.23h1l-.6,3.18a4,4,0,0,0-.11.84c0,.59.25,1,.92,1a2.35,2.35,0,0,0,1.85-2.09l.56-2.92Z" transform="translate(-314.19 -270.2)"/><path class="cls-4" d="M484.15,371.13l-.26,1.37h1.37l-.15.76h-1.37l-.53,2.77a5,5,0,0,0-.11.91.49.49,0,0,0,.55.55,2.19,2.19,0,0,0,.46,0l-.05.77a2.61,2.61,0,0,1-.76.11,1.06,1.06,0,0,1-1.2-1.11,5.47,5.47,0,0,1,.12-1.07l.57-2.89H482l.15-.76h.82l.2-1.05Z" transform="translate(-314.19 -270.2)"/><path class="cls-4" d="M485.32,378.2l1.1-5.7h1l-1.09,5.7Zm1.83-6.68a.57.57,0,0,1-.56-.61.66.66,0,0,1,.65-.66.56.56,0,0,1,.58.61.64.64,0,0,1-.66.66Z" transform="translate(-314.19 -270.2)"/><path class="cls-4" d="M488,378.2l.77-4c.13-.64.2-1.19.27-1.66h.87l-.14,1.12h0a2.5,2.5,0,0,1,2.11-1.25,1.41,1.41,0,0,1,1.45,1.59,5.45,5.45,0,0,1-.11.92l-.63,3.32h-1l.62-3.29a3.47,3.47,0,0,0,.09-.73c0-.58-.23-1-.9-1a2.52,2.52,0,0,0-1.94,2.25L489,378.2Z" transform="translate(-314.19 -270.2)"/><path class="cls-4" d="M494.37,379.5a3,3,0,0,0,1.51.38c.95,0,1.71-.5,2.05-2l.19-.85h0a2.27,2.27,0,0,1-2,1.21,1.8,1.8,0,0,1-1.73-2,3.72,3.72,0,0,1,3.62-3.85,4.71,4.71,0,0,1,1.83.4l-.87,4.71a4.31,4.31,0,0,1-1.16,2.55,3,3,0,0,1-2,.63,3.32,3.32,0,0,1-1.71-.4Zm4.38-6.15a2.31,2.31,0,0,0-.95-.19c-1.42,0-2.4,1.48-2.41,2.9,0,.62.22,1.36,1.09,1.36s1.7-1.06,1.9-2.18Z" transform="translate(-314.19 -270.2)"/><path class="cls-4" d="M506.42,378.2c0-.34.06-.88.13-1.47h0a2.48,2.48,0,0,1-2.21,1.6,1.69,1.69,0,0,1-1.64-1.88,4,4,0,0,1,3.95-4.08,5.32,5.32,0,0,1,1.53.22l-.58,3a13.2,13.2,0,0,0-.25,2.64Zm.63-5a2.34,2.34,0,0,0-.68-.09,3.05,3.05,0,0,0-2.69,3.13c0,.63.23,1.26,1,1.26s1.78-1.06,2.06-2.58Z" transform="translate(-314.19 -270.2)"/><path class="cls-4" d="M508.83,377.21a2.55,2.55,0,0,0,1.23.35,1,1,0,0,0,1.08-.93c0-.44-.2-.71-.79-1.05a1.69,1.69,0,0,1-1-1.45,1.87,1.87,0,0,1,2.06-1.76,2.38,2.38,0,0,1,1.19.28l-.27.74a2,2,0,0,0-1-.26.92.92,0,0,0-1,.86c0,.42.27.68.77,1a1.79,1.79,0,0,1,1.08,1.5,2,2,0,0,1-2.18,1.88,2.58,2.58,0,0,1-1.42-.4Z" transform="translate(-314.19 -270.2)"/><path class="cls-4" d="M519.11,378.2c0-.34.06-.88.13-1.47h0a2.5,2.5,0,0,1-2.22,1.6,1.69,1.69,0,0,1-1.64-1.88,4,4,0,0,1,3.95-4.08,5.32,5.32,0,0,1,1.53.22l-.57,3a12.5,12.5,0,0,0-.25,2.64Zm.64-5a2.43,2.43,0,0,0-.69-.09,3,3,0,0,0-2.68,3.13c0,.63.22,1.26,1,1.26s1.78-1.06,2.07-2.58Z" transform="translate(-314.19 -270.2)"/><path class="cls-4" d="M523.79,377a3.09,3.09,0,0,0,1.68.5A1.57,1.57,0,0,0,527.2,376c0-.59-.35-1-1.17-1.49-1-.54-1.58-1.18-1.58-2a2.46,2.46,0,0,1,2.69-2.33,3,3,0,0,1,1.62.42l-.35.79A2.64,2.64,0,0,0,527,371a1.42,1.42,0,0,0-1.57,1.29c0,.65.4,1,1.23,1.48a2.31,2.31,0,0,1,1.52,2.12c0,1.38-1.09,2.46-2.87,2.46a3.33,3.33,0,0,1-1.9-.55Z" transform="translate(-314.19 -270.2)"/><path class="cls-4" d="M533.16,378a4,4,0,0,1-1.65.35,2.06,2.06,0,0,1-2.19-2.21,3.61,3.61,0,0,1,3.48-3.74,2.88,2.88,0,0,1,1.2.25l-.29.77a2.28,2.28,0,0,0-1-.21,2.66,2.66,0,0,0-2.42,2.81,1.34,1.34,0,0,0,1.41,1.52,3,3,0,0,0,1.32-.32Z" transform="translate(-314.19 -270.2)"/><path class="cls-4" d="M534.22,378.2l1.09-5.7h1l-1.09,5.7Zm1.83-6.68a.57.57,0,0,1-.56-.61.66.66,0,0,1,.65-.66.56.56,0,0,1,.58.61.65.65,0,0,1-.66.66Z" transform="translate(-314.19 -270.2)"/><path class="cls-4" d="M541,377.87a3.88,3.88,0,0,1-1.88.46A2.07,2.07,0,0,1,537,376c0-1.72,1.27-3.66,3.11-3.66a1.48,1.48,0,0,1,1.67,1.46c0,1.5-1.68,1.9-3.79,1.86a2.48,2.48,0,0,0,.11,1.09,1.32,1.32,0,0,0,1.28.76,3.15,3.15,0,0,0,1.53-.4Zm-.21-4c0-.46-.35-.72-.87-.72-.93,0-1.63.91-1.87,1.81,1.54,0,2.74-.19,2.74-1.08Z" transform="translate(-314.19 -270.2)"/><path class="cls-4" d="M542.26,378.2l.76-4c.13-.64.2-1.19.27-1.66h.88l-.15,1.12h0a2.49,2.49,0,0,1,2.11-1.25,1.41,1.41,0,0,1,1.45,1.59,5.45,5.45,0,0,1-.11.92l-.63,3.32h-1l.62-3.29a3.47,3.47,0,0,0,.08-.73c0-.58-.22-1-.89-1a2.52,2.52,0,0,0-2,2.25l-.51,2.77Z" transform="translate(-314.19 -270.2)"/><path class="cls-4" d="M552.47,378a3.9,3.9,0,0,1-1.65.35,2.06,2.06,0,0,1-2.19-2.21,3.61,3.61,0,0,1,3.49-3.74,2.82,2.82,0,0,1,1.19.25l-.28.77a2.33,2.33,0,0,0-1-.21,2.66,2.66,0,0,0-2.41,2.81,1.34,1.34,0,0,0,1.41,1.52,3,3,0,0,0,1.32-.32Z" transform="translate(-314.19 -270.2)"/><path class="cls-4" d="M557.54,377.87a3.88,3.88,0,0,1-1.88.46,2.07,2.07,0,0,1-2.17-2.3c0-1.72,1.27-3.66,3.11-3.66a1.48,1.48,0,0,1,1.67,1.46c0,1.5-1.68,1.9-3.79,1.86a2.35,2.35,0,0,0,.12,1.09,1.29,1.29,0,0,0,1.27.76,3.15,3.15,0,0,0,1.53-.4Zm-.21-4c0-.46-.35-.72-.87-.72-.93,0-1.63.91-1.86,1.81,1.53,0,2.73-.19,2.73-1.08Z" transform="translate(-314.19 -270.2)"/><path class="cls-4" d="M565.71,378.2a7.28,7.28,0,0,1-.54-.73,3.13,3.13,0,0,1-2.23.86,2,2,0,0,1-2.16-2,3,3,0,0,1,2-2.56v0a3.07,3.07,0,0,1-.42-1.45,2.09,2.09,0,0,1,2.09-2.17A1.49,1.49,0,0,1,566,371.7c0,.94-.67,1.67-2,2.3v0c.43.74,1,1.62,1.43,2.21a7.83,7.83,0,0,0,1.2-2.39h.92a8,8,0,0,1-1.68,3c.3.41.62.85,1,1.32Zm-2.51-.64a2.13,2.13,0,0,0,1.55-.7c-.36-.56-1.06-1.52-1.64-2.51a2.31,2.31,0,0,0-1.34,1.85,1.31,1.31,0,0,0,1.42,1.36Zm1.12-6.74a1.24,1.24,0,0,0-1.1,1.37,2.37,2.37,0,0,0,.38,1.26c1-.46,1.52-1,1.52-1.73,0-.46-.21-.9-.79-.9Z" transform="translate(-314.19 -270.2)"/><path class="cls-4" d="M571.53,370.38a7.63,7.63,0,0,1,1.72-.18,2.88,2.88,0,0,1,2,.61,1.89,1.89,0,0,1,.58,1.44,2.72,2.72,0,0,1-1,2.07,3.8,3.8,0,0,1-2.4.76,6.71,6.71,0,0,1-.82-.06l-.6,3.18h-1Zm.23,3.81a3.48,3.48,0,0,0,.79.09,2,2,0,0,0,2.24-2c0-.94-.68-1.32-1.58-1.32a4,4,0,0,0-.86.08Z" transform="translate(-314.19 -270.2)"/><path class="cls-4" d="M575.85,378.2l.69-3.68c.14-.74.24-1.49.3-2h.86c-.05.4-.1.8-.16,1.23h0a2.06,2.06,0,0,1,1.74-1.36l.27,0-.18,1a1.56,1.56,0,0,0-.26,0c-.85,0-1.61,1-1.86,2.36l-.47,2.51Z" transform="translate(-314.19 -270.2)"/><path class="cls-4" d="M585,374.75a3.42,3.42,0,0,1-3.16,3.58,2.17,2.17,0,0,1-2.22-2.34,3.41,3.41,0,0,1,3.15-3.62A2.17,2.17,0,0,1,585,374.75Zm-4.37,1.2c0,.93.51,1.6,1.34,1.6,1.16,0,2-1.48,2-2.81a1.42,1.42,0,0,0-1.33-1.6C581.43,373.14,580.61,374.64,580.62,376Z" transform="translate(-314.19 -270.2)"/><path class="cls-4" d="M585.82,378.2l.93-4.93H586l.14-.77h.77l.06-.3a3.32,3.32,0,0,1,.93-2,2,2,0,0,1,1.36-.51,1.44,1.44,0,0,1,.77.16l-.21.77a1.4,1.4,0,0,0-.58-.1c-.77,0-1.15.75-1.32,1.7l0,.27h1.27l-.15.77h-1.26l-1,4.93Z" transform="translate(-314.19 -270.2)"/><path class="cls-4" d="M593.12,377.87a3.88,3.88,0,0,1-1.88.46,2.07,2.07,0,0,1-2.17-2.3c0-1.72,1.27-3.66,3.11-3.66a1.48,1.48,0,0,1,1.67,1.46c0,1.5-1.68,1.9-3.79,1.86a2.35,2.35,0,0,0,.12,1.09,1.29,1.29,0,0,0,1.27.76,3.15,3.15,0,0,0,1.53-.4Zm-.21-4c0-.46-.35-.72-.87-.72-.93,0-1.63.91-1.86,1.81,1.53,0,2.73-.19,2.73-1.08Z" transform="translate(-314.19 -270.2)"/><path class="cls-4" d="M594.4,377.21a2.51,2.51,0,0,0,1.22.35,1,1,0,0,0,1.09-.93c0-.44-.2-.71-.79-1.05a1.7,1.7,0,0,1-1-1.45,1.87,1.87,0,0,1,2.06-1.76,2.38,2.38,0,0,1,1.19.28l-.27.74a2,2,0,0,0-1-.26.92.92,0,0,0-1,.86c0,.42.27.68.78,1a1.8,1.8,0,0,1,1.07,1.5,2,2,0,0,1-2.18,1.88,2.55,2.55,0,0,1-1.41-.4Z" transform="translate(-314.19 -270.2)"/><path class="cls-4" d="M598.79,377.21a2.55,2.55,0,0,0,1.23.35,1,1,0,0,0,1.08-.93c0-.44-.2-.71-.79-1.05a1.69,1.69,0,0,1-1-1.45,1.87,1.87,0,0,1,2.06-1.76,2.38,2.38,0,0,1,1.19.28l-.27.74a2,2,0,0,0-1-.26.92.92,0,0,0-1,.86c0,.42.27.68.77,1a1.79,1.79,0,0,1,1.08,1.5,2,2,0,0,1-2.18,1.88,2.58,2.58,0,0,1-1.42-.4Z" transform="translate(-314.19 -270.2)"/><path class="cls-4" d="M603.14,378.2l1.1-5.7h1l-1.1,5.7Zm1.83-6.68a.57.57,0,0,1-.56-.61.66.66,0,0,1,.65-.66.56.56,0,0,1,.58.61.64.64,0,0,1-.66.66Z" transform="translate(-314.19 -270.2)"/><path class="cls-4" d="M611.31,374.75a3.42,3.42,0,0,1-3.16,3.58,2.18,2.18,0,0,1-2.23-2.34,3.42,3.42,0,0,1,3.16-3.62A2.18,2.18,0,0,1,611.31,374.75Zm-4.37,1.2c0,.93.5,1.6,1.34,1.6,1.15,0,2-1.48,2-2.81a1.42,1.42,0,0,0-1.34-1.6C607.75,373.14,606.92,374.64,606.94,376Z" transform="translate(-314.19 -270.2)"/><path class="cls-4" d="M612,378.2l.77-4c.13-.64.2-1.19.27-1.66h.87l-.14,1.12h0a2.51,2.51,0,0,1,2.11-1.25,1.4,1.4,0,0,1,1.45,1.59,5.36,5.36,0,0,1-.1.92l-.64,3.32h-1l.63-3.29a4.29,4.29,0,0,0,.08-.73c0-.58-.22-1-.9-1a2.52,2.52,0,0,0-1.94,2.25L613,378.2Z" transform="translate(-314.19 -270.2)"/></svg>